<?xml version="1.0" encoding="UTF-8"?>
<!DOCTYPE svg PUBLIC "-//W3C//DTD SVG 1.1//EN" "http://www.w3.org/Graphics/SVG/1.1/DTD/svg11.dtd">
<svg xmlns="http://www.w3.org/2000/svg" version="1.1" width="512px" height="512px" style="shape-rendering:geometricPrecision; text-rendering:geometricPrecision; image-rendering:optimizeQuality; fill-rule:evenodd; clip-rule:evenodd" xmlns:xlink="http://www.w3.org/1999/xlink">
<g><path style="opacity:0.982" fill="#1c3685" d="M 167.5,42.5 C 173.097,41.6113 177.263,43.6113 180,48.5C 185.371,60.3142 189.037,72.6476 191,85.5C 192.162,87.928 193.829,88.5947 196,87.5C 197.473,87.9031 198.806,88.5697 200,89.5C 201.943,95.0623 204.61,100.062 208,104.5C 240.375,93.8588 272.708,93.8588 305,104.5C 307,99.8333 309,95.1667 311,90.5C 314,89.1667 317,87.8333 320,86.5C 321.804,73.2802 325.471,60.6135 331,48.5C 333.733,43.4379 337.9,41.6046 343.5,43C 348.155,45.8966 349.655,50.0633 348,55.5C 343.827,67.5148 337.827,78.5148 330,88.5C 329.333,90.1667 329.333,91.8333 330,93.5C 331.529,94.7287 332.696,96.2287 333.5,98C 331.647,102.875 329.647,107.709 327.5,112.5C 357.802,128.969 381.302,152.302 398,182.5C 402.466,180.681 406.966,179.015 411.5,177.5C 413.688,177.307 415.355,178.141 416.5,180C 418.167,180.667 419.833,180.667 421.5,180C 431.259,172.452 441.926,166.452 453.5,162C 463.709,159.556 468.209,163.389 467,173.5C 461.446,179.529 454.613,183.362 446.5,185C 439.133,186.54 431.8,188.207 424.5,190C 423.009,192.718 421.676,195.551 420.5,198.5C 415.953,200.94 411.287,203.107 406.5,205C 416.797,237.356 417.13,269.856 407.5,302.5C 411.619,305.731 416.286,308.231 421.5,310C 422.833,313 424.167,316 425.5,319C 438.736,320.808 451.403,324.475 463.5,330C 468.562,332.733 470.395,336.9 469,342.5C 465.975,346.921 461.808,348.421 456.5,347C 444.475,342.822 433.475,336.822 423.5,329C 421.833,328.333 420.167,328.333 418.5,329C 417.271,330.529 415.771,331.696 414,332.5C 408.584,330.361 403.251,328.028 398,325.5C 382.439,356.561 359.273,380.228 328.5,396.5C 331.256,402.176 333.589,408.01 335.5,414C 334.822,416.524 333.488,418.691 331.5,420.5C 336.136,428.3 340.969,435.967 346,443.5C 350.153,449.948 351.82,456.948 351,464.5C 348.774,468.861 345.274,470.361 340.5,469C 338.04,467.542 335.873,465.709 334,463.5C 328.629,451.686 324.963,439.352 323,426.5C 322.309,423.734 320.809,423.067 318.5,424.5C 316.742,423.872 315.242,422.872 314,421.5C 311.698,415.89 309.031,410.556 306,405.5C 273.298,416.164 240.631,416.164 208,405.5C 205.861,410.916 203.528,416.249 201,421.5C 198.834,423.121 196.334,423.955 193.5,424C 191.039,431.293 189.206,438.793 188,446.5C 186.562,452.043 184.562,457.376 182,462.5C 177.023,470.905 171.357,471.572 165,464.5C 164.111,455.824 166.111,447.824 171,440.5C 175.25,434.335 179.25,428.002 183,421.5C 183.667,420.5 183.667,419.5 183,418.5C 181.214,417.223 180.048,415.556 179.5,413.5C 181.426,407.817 183.759,402.317 186.5,397C 164.624,385.975 146.124,370.808 131,351.5C 125.64,343.482 120.307,335.482 115,327.5C 109.893,329.97 104.726,332.304 99.5,334.5C 97.4835,333.826 95.8168,332.659 94.5,331C 93.1667,330.333 91.8333,330.333 90.5,331C 83.1667,335.667 75.8333,340.333 68.5,345C 61.8693,349.061 54.8693,350.394 47.5,349C 41.5763,342.211 42.5763,336.544 50.5,332C 61.6541,326.961 73.3208,323.627 85.5,322C 88.633,321.089 89.633,319.256 88.5,316.5C 89.1279,314.742 90.1279,313.242 91.5,312C 96.4077,309.962 101.241,307.795 106,305.5C 104.514,297.879 102.847,290.212 101,282.5C 96.4484,256.822 98.2818,231.656 106.5,207C 101.431,204.134 96.098,201.801 90.5,200C 87.6384,198.214 86.9717,195.881 88.5,193C 87.8333,192.333 87.1667,191.667 86.5,191C 73.2802,189.196 60.6135,185.529 48.5,180C 43.2685,177.367 41.4351,173.201 43,167.5C 45.8966,162.845 50.0633,161.345 55.5,163C 67.5148,167.173 78.5148,173.173 88.5,181C 89.3333,181.167 90.1667,181.333 91,181.5C 93.112,179.581 95.612,178.248 98.5,177.5C 104.292,180.484 110.125,182.484 116,183.5C 131.614,153.553 154.281,130.553 184,114.5C 182.373,109.045 180.539,103.545 178.5,98C 179.178,95.4761 180.512,93.3095 182.5,91.5C 178.916,85.3305 175.083,79.3305 171,73.5C 167.778,67.7256 165.112,61.7256 163,55.5C 161.379,49.9227 162.879,45.5894 167.5,42.5 Z M 246.5,124.5 C 294.851,123.096 333.684,141.429 363,179.5C 393.433,226.835 395.1,275.168 368,324.5C 341.527,364.729 304.027,385.729 255.5,387.5C 205.888,385.318 168.054,363.318 142,321.5C 115.31,268.726 119.643,218.726 155,171.5C 179.474,144.013 209.974,128.347 246.5,124.5 Z M 215.5,141.5 C 219.043,141.872 221.21,143.872 222,147.5C 223.599,150.991 223.766,154.491 222.5,158C 218.412,158.604 215.912,156.77 215,152.5C 213.024,148.599 213.19,144.932 215.5,141.5 Z M 299.5,151.5 C 300.776,152.386 300.776,153.386 299.5,154.5C 298.438,153.575 298.438,152.575 299.5,151.5 Z M 259.5,165.5 C 259.272,163.645 259.939,162.812 261.5,163C 260.934,163.995 260.267,164.828 259.5,165.5 Z M 249.5,162.5 C 250.797,163.849 250.63,165.182 249,166.5C 248.805,165.181 248.972,163.847 249.5,162.5 Z M 272.5,163.5 C 272.068,164.71 271.401,165.71 270.5,166.5C 270.285,164.821 270.952,163.821 272.5,163.5 Z M 282.5,166.5 C 282.539,167.756 282.039,168.756 281,169.5C 280.415,168.002 280.915,167.002 282.5,166.5 Z M 293.5,170.5 C 292.738,172.262 291.404,173.262 289.5,173.5C 290.262,171.738 291.596,170.738 293.5,170.5 Z M 301.5,176.5 C 301.027,177.906 300.027,178.573 298.5,178.5C 298.973,177.094 299.973,176.427 301.5,176.5 Z M 255.5,188.5 C 260.819,189.326 262.653,192.326 261,197.5C 255.927,201.864 252.427,200.864 250.5,194.5C 250.76,191.246 252.427,189.246 255.5,188.5 Z M 180.5,208.5 C 182.262,209.262 183.262,210.596 183.5,212.5C 181.738,211.738 180.738,210.404 180.5,208.5 Z M 150.5,216.5 C 151.386,215.224 152.386,215.224 153.5,216.5C 152.575,217.562 151.575,217.562 150.5,216.5 Z M 176.5,219.5 C 178.027,219.427 179.027,220.094 179.5,221.5C 177.973,221.573 176.973,220.906 176.5,219.5 Z M 328.5,279.5 C 330.262,280.262 331.262,281.596 331.5,283.5C 329.738,282.738 328.738,281.404 328.5,279.5 Z M 319.5,301.5 C 317.915,300.998 317.415,299.998 318,298.5C 319.039,299.244 319.539,300.244 319.5,301.5 Z M 200.5,309.5 C 201.002,307.915 202.002,307.415 203.5,308C 202.756,309.039 201.756,309.539 200.5,309.5 Z M 222.5,318.5 C 221.738,320.262 220.404,321.262 218.5,321.5C 219.262,319.738 220.596,318.738 222.5,318.5 Z M 272.5,323.5 C 271.837,325.804 271.17,328.137 270.5,330.5C 272.095,331.434 273.761,331.434 275.5,330.5C 276.686,332.194 276.519,333.861 275,335.5C 272.948,334.277 270.781,333.277 268.5,332.5C 269.577,330.271 270.244,327.937 270.5,325.5C 268.5,325.833 266.5,326.167 264.5,326.5C 264.5,326.167 264.5,325.833 264.5,325.5C 267.006,324.25 269.673,323.584 272.5,323.5 Z M 243.5,324.5 C 246.247,324.187 248.914,324.52 251.5,325.5C 251.333,325.833 251.167,326.167 251,326.5C 248.393,325.877 245.893,325.21 243.5,324.5 Z M 259.5,336.5 C 255.615,334.984 251.948,335.318 248.5,337.5C 249.141,336.518 249.807,335.518 250.5,334.5C 249.051,333.828 247.718,333.161 246.5,332.5C 247.5,332.5 248.5,332.5 249.5,332.5C 249.453,326.147 250.119,325.98 251.5,332C 254.11,332.224 256.61,331.724 259,330.5C 261.166,332.121 263.666,332.955 266.5,333C 264.833,333.333 263.167,333.667 261.5,334C 260.244,334.417 259.577,335.25 259.5,336.5 Z M 237.5,328.5 C 240.345,330.224 243.345,331.558 246.5,332.5C 243.813,332.336 241.146,332.503 238.5,333C 237.584,333.278 236.918,333.778 236.5,334.5C 235.659,333.074 234.659,331.74 233.5,330.5C 235.199,330.473 236.533,329.806 237.5,328.5 Z M 237.5,336.5 C 240.71,338.476 244.043,339.142 247.5,338.5C 247.918,339.222 248.584,339.722 249.5,340C 247.114,340.284 246.448,341.284 247.5,343C 246.837,344.518 245.837,345.685 244.5,346.5C 245.15,344.565 245.483,342.565 245.5,340.5C 242.763,340.401 240.096,340.735 237.5,341.5C 238.562,339.901 238.562,338.234 237.5,336.5 Z M 263.5,338.5 C 265.746,339.21 268.08,339.71 270.5,340C 268.423,340.192 266.423,340.692 264.5,341.5C 263.717,343.288 262.384,344.288 260.5,344.5C 262.385,342.947 263.385,340.947 263.5,338.5 Z M 308.5,354.5 C 312.06,356.283 312.06,357.283 308.5,357.5C 308.5,356.5 308.5,355.5 308.5,354.5 Z M 253.5,361.5 C 258.587,361.284 259.587,363.118 256.5,367C 255.552,367.483 254.552,367.649 253.5,367.5C 253.5,365.5 253.5,363.5 253.5,361.5 Z M 223.5,363.5 C 224.776,364.386 224.776,365.386 223.5,366.5C 222.913,365.767 222.913,364.767 223.5,363.5 Z M 256.5,378.5 C 255.5,378.5 254.5,378.5 253.5,378.5C 253.187,375.753 253.52,373.086 254.5,370.5C 255.086,370.709 255.586,371.043 256,371.5C 256.497,373.81 256.663,376.143 256.5,378.5 Z"/></g>
<g><path style="opacity:0.918" fill="#1c3686" d="M 217.5,137.5 C 228.175,138.16 232.675,143.827 231,154.5C 226.666,161.283 220.499,163.783 212.5,162C 205.288,156.879 203.788,150.379 208,142.5C 210.995,140.347 214.162,138.681 217.5,137.5 Z M 215.5,141.5 C 213.19,144.932 213.024,148.599 215,152.5C 215.912,156.77 218.412,158.604 222.5,158C 223.766,154.491 223.599,150.991 222,147.5C 221.21,143.872 219.043,141.872 215.5,141.5 Z"/></g>
<g><path style="opacity:0.941" fill="#1c3687" d="M 309.5,167.5 C 312.244,169.058 314.41,168.391 316,165.5C 318,162.833 320,160.167 322,157.5C 322.595,156.101 322.428,154.768 321.5,153.5C 321.808,152.692 322.308,152.025 323,151.5C 325.644,153.31 328.144,155.31 330.5,157.5C 331.088,161.774 331.088,166.108 330.5,170.5C 334.49,168.531 335.49,165.531 333.5,161.5C 336.833,162.641 339.833,164.474 342.5,167C 340.624,168.017 338.624,168.851 336.5,169.5C 333.153,174.342 329.32,178.675 325,182.5C 323.739,182.241 322.739,181.574 322,180.5C 321.802,174.821 321.802,169.155 322,163.5C 318.481,166.182 316.981,169.515 317.5,173.5C 317.192,174.308 316.692,174.975 316,175.5C 310.704,170.448 304.537,166.781 297.5,164.5C 296.614,163.675 296.281,162.675 296.5,161.5C 297.5,161.5 298.5,161.5 299.5,161.5C 299.684,158.679 298.351,157.012 295.5,156.5C 293.043,158.001 293.043,159.668 295.5,161.5C 292.119,162.499 289.119,161.666 286.5,159C 281.863,158.171 277.196,157.671 272.5,157.5C 272.5,156.5 272.5,155.5 272.5,154.5C 273.5,154.5 274.5,154.5 275.5,154.5C 276.051,151.193 276.384,147.86 276.5,144.5C 274.274,147.945 272.274,151.611 270.5,155.5C 268.994,156.747 267.494,156.747 266,155.5C 265,151.167 264,146.833 263,142.5C 261.021,146.916 261.187,151.249 263.5,155.5C 259.987,155.693 256.654,155.026 253.5,153.5C 254.32,151.889 255.654,151.222 257.5,151.5C 258.167,145.833 258.833,140.167 259.5,134.5C 255.698,134.105 255.531,133.105 259,131.5C 262.128,132.204 265.294,132.704 268.5,133C 269.789,137.103 270.956,141.27 272,145.5C 273.691,141.953 275.524,138.453 277.5,135C 281.475,135.017 285.475,135.184 289.5,135.5C 289.5,136.5 289.5,137.5 289.5,138.5C 288.178,138.33 287.011,138.663 286,139.5C 285.397,144.555 284.564,149.555 283.5,154.5C 285,155.5 286.5,156.5 288,157.5C 293.456,153.046 298.623,148.213 303.5,143C 305.488,142.82 307.488,142.986 309.5,143.5C 308.957,150.527 308.29,157.527 307.5,164.5C 308.193,165.518 308.859,166.518 309.5,167.5 Z M 299.5,151.5 C 298.438,152.575 298.438,153.575 299.5,154.5C 300.776,153.386 300.776,152.386 299.5,151.5 Z"/></g>
<g><path style="opacity:0.921" fill="#1c3687" d="M 192.5,148.5 C 195.446,150.457 197.779,153.124 199.5,156.5C 198.758,157.287 197.925,157.953 197,158.5C 194.57,155.847 191.737,154.847 188.5,155.5C 187.585,156.328 186.919,157.328 186.5,158.5C 187.601,162.538 189.601,166.038 192.5,169C 199.92,171.077 202.587,168.244 200.5,160.5C 201.822,160.33 202.989,160.663 204,161.5C 204.984,170.033 201.151,175.033 192.5,176.5C 182.885,174.281 179.051,168.281 181,158.5C 183.733,154.25 187.566,151.916 192.5,151.5C 192.5,150.5 192.5,149.5 192.5,148.5 Z"/></g>
<g><path style="opacity:0.802" fill="#1c3687" d="M 272.5,163.5 C 270.952,163.821 270.285,164.821 270.5,166.5C 269.833,166.5 269.5,166.833 269.5,167.5C 268.504,167.414 267.671,167.748 267,168.5C 264.06,168.154 261.56,167.154 259.5,165.5C 258.711,165.783 258.044,166.283 257.5,167C 244.406,166.695 232.073,169.528 220.5,175.5C 219.223,172.966 219.223,170.466 220.5,168C 222.722,167.305 224.889,166.472 227,165.5C 228.826,166.01 228.993,166.844 227.5,168C 228.126,168.75 228.626,169.584 229,170.5C 229.192,168.423 229.692,166.423 230.5,164.5C 236.406,162.785 242.406,161.452 248.5,160.5C 253.793,160.508 259.126,160.508 264.5,160.5C 267.65,160.766 270.317,161.766 272.5,163.5 Z M 259.5,165.5 C 260.267,164.828 260.934,163.995 261.5,163C 259.939,162.812 259.272,163.645 259.5,165.5 Z M 249.5,162.5 C 248.972,163.847 248.805,165.181 249,166.5C 250.63,165.182 250.797,163.849 249.5,162.5 Z"/></g>
<g><path style="opacity:0.941" fill="#1b3785" d="M 209.5,178.5 C 209.215,176.712 209.548,175.045 210.5,173.5C 212.833,172.167 215.167,170.833 217.5,169.5C 218.647,171.765 218.814,174.098 218,176.5C 215.667,178.167 213.333,179.833 211,181.5C 210.768,180.263 210.268,179.263 209.5,178.5 Z"/></g>
<g><path style="opacity:0.945" fill="#1c3788" d="M 282.5,166.5 C 283.583,166.461 284.583,166.127 285.5,165.5C 288.642,166.72 291.309,168.387 293.5,170.5C 291.596,170.738 290.262,171.738 289.5,173.5C 282.735,170.842 276.068,168.842 269.5,167.5C 270.167,167.5 270.5,167.167 270.5,166.5C 271.401,165.71 272.068,164.71 272.5,163.5C 276.185,162.823 279.852,163.323 283.5,165C 282.944,165.383 282.611,165.883 282.5,166.5 Z M 282.5,166.5 C 280.915,167.002 280.415,168.002 281,169.5C 282.039,168.756 282.539,167.756 282.5,166.5 Z"/></g>
<g><path style="opacity:0.59" fill="#1c3788" d="M 293.5,170.5 C 296.354,170.924 299.021,171.924 301.5,173.5C 302.562,174.425 302.562,175.425 301.5,176.5C 299.973,176.427 298.973,177.094 298.5,178.5C 294.709,177.997 291.709,176.33 289.5,173.5C 291.404,173.262 292.738,172.262 293.5,170.5 Z"/></g>
<g><path style="opacity:0.94" fill="#1c3687" d="M 349.5,191.5 C 353.039,190.676 354.372,188.676 353.5,185.5C 353.833,184.5 354.5,183.833 355.5,183.5C 357.121,185.624 358.954,187.624 361,189.5C 361.617,190.449 361.451,191.282 360.5,192C 358.874,191.805 357.207,191.805 355.5,192C 351.012,195.743 346.346,199.243 341.5,202.5C 338.979,200.74 338.146,198.407 339,195.5C 340.803,191.256 342.303,186.922 343.5,182.5C 338.706,184.743 335.873,188.076 335,192.5C 331.984,190.983 329.818,188.65 328.5,185.5C 329.776,184.355 331.109,184.355 332.5,185.5C 336.931,182.868 341.098,179.868 345,176.5C 345.492,175.451 345.326,174.451 344.5,173.5C 344.833,172.5 345.5,171.833 346.5,171.5C 349.075,174.319 351.408,177.319 353.5,180.5C 351.368,183.896 350.035,187.563 349.5,191.5 Z"/></g>
<g><path style="opacity:0.972" fill="#1b3685" d="M 253.5,178.5 C 269.36,180.221 274.526,188.555 269,203.5C 267.316,205.351 265.483,207.018 263.5,208.5C 262.526,210.743 262.192,213.076 262.5,215.5C 273.172,215.333 283.839,215.5 294.5,216C 295.833,218.667 295.833,221.333 294.5,224C 284.172,224.5 273.839,224.666 263.5,224.5C 263.689,244.173 264.189,263.84 265,283.5C 265.311,289.824 268.477,292.324 274.5,291C 286.797,288.849 291.297,282.016 288,270.5C 296.919,264.252 305.252,257.252 313,249.5C 318.289,262.068 316.455,273.568 307.5,284C 305.5,284.333 303.5,284.667 301.5,285C 295.814,291.351 289.481,297.017 282.5,302C 273.705,306.32 264.705,310.154 255.5,313.5C 242.028,309.098 229.695,302.598 218.5,294C 215.462,291.297 212.795,288.297 210.5,285C 204.721,284.898 200.888,282.065 199,276.5C 194.466,267.425 194.466,258.425 199,249.5C 206.748,257.252 215.081,264.252 224,270.5C 220.718,276.587 221.884,282.087 227.5,287C 232.853,290.582 238.519,291.582 244.5,290C 246.02,287.404 246.853,284.571 247,281.5C 247.687,262.503 248.187,243.503 248.5,224.5C 238.161,224.666 227.828,224.5 217.5,224C 216.167,221.333 216.167,218.667 217.5,216C 228.161,215.5 238.828,215.333 249.5,215.5C 249.808,213.076 249.474,210.743 248.5,208.5C 241.56,203.949 239.06,197.615 241,189.5C 243.505,183.822 247.671,180.155 253.5,178.5 Z M 255.5,188.5 C 252.427,189.246 250.76,191.246 250.5,194.5C 252.427,200.864 255.927,201.864 261,197.5C 262.653,192.326 260.819,189.326 255.5,188.5 Z"/></g>
<g><path style="opacity:0.851" fill="#1c3688" d="M 311.5,182.5 C 310.508,182.328 309.842,182.662 309.5,183.5C 308.508,183.328 307.842,183.662 307.5,184.5C 303.61,183.729 300.61,181.729 298.5,178.5C 300.027,178.573 301.027,177.906 301.5,176.5C 302.496,176.586 303.329,176.252 304,175.5C 307.072,177.411 309.572,179.745 311.5,182.5 Z"/></g>
<g><path style="opacity:0.928" fill="#1c3687" d="M 171.5,182.5 C 173.657,186.472 175.49,190.472 177,194.5C 176.333,195.167 175.667,195.833 175,196.5C 170.714,194.47 166.214,193.137 161.5,192.5C 163.812,194.636 166.312,196.636 169,198.5C 170.612,195.921 172.112,195.921 173.5,198.5C 171.322,201.177 168.989,203.677 166.5,206C 166.957,206.414 167.291,206.914 167.5,207.5C 165.971,210.754 164.638,214.087 163.5,217.5C 162.675,218.386 161.675,218.719 160.5,218.5C 160.5,217.5 160.5,216.5 160.5,215.5C 157.459,215.406 155.793,216.906 155.5,220C 156.025,220.692 156.692,221.192 157.5,221.5C 158.968,219.667 160.635,219.334 162.5,220.5C 161.305,222.751 160.305,225.085 159.5,227.5C 158.675,228.386 157.675,228.719 156.5,228.5C 156.649,227.448 156.483,226.448 156,225.5C 150.684,221.018 145.517,216.352 140.5,211.5C 141.246,210.264 141.579,208.93 141.5,207.5C 149.238,207.856 156.905,207.356 164.5,206C 165.167,204.667 165.833,203.333 166.5,202C 162.533,198.02 158.199,194.52 153.5,191.5C 152.109,192.645 150.776,192.645 149.5,191.5C 151.475,188.391 153.808,185.557 156.5,183C 160.5,183.667 164.5,184.333 168.5,185C 166.375,181.918 164.375,178.751 162.5,175.5C 164.472,171.895 167.139,168.895 170.5,166.5C 171.731,167.651 171.731,168.817 170.5,170C 174.5,173.333 178.5,176.667 182.5,180C 184.225,179.591 185.892,179.758 187.5,180.5C 185.157,184.336 182.324,187.669 179,190.5C 177.287,189.863 177.121,188.863 178.5,187.5C 176.408,185.395 174.075,183.728 171.5,182.5 Z M 150.5,216.5 C 151.575,217.562 152.575,217.562 153.5,216.5C 152.386,215.224 151.386,215.224 150.5,216.5 Z"/></g>
<g><path style="opacity:0.911" fill="#1b3687" d="M 311.5,182.5 C 312.239,182.369 312.906,182.536 313.5,183C 317.695,187.526 321.861,192.026 326,196.5C 326.591,197.483 326.257,198.15 325,198.5C 320.214,199.941 316.714,198.275 314.5,193.5C 315.243,192.818 315.909,192.151 316.5,191.5C 315.127,191.657 313.793,191.49 312.5,191C 310.792,188.957 308.792,187.29 306.5,186C 307.056,185.617 307.389,185.117 307.5,184.5C 308.492,184.672 309.158,184.338 309.5,183.5C 310.492,183.672 311.158,183.338 311.5,182.5 Z"/></g>
<g><path style="opacity:0.971" fill="#1b3686" d="M 209.5,178.5 C 209.822,180.722 209.155,182.556 207.5,184C 205.714,184.785 204.214,185.951 203,187.5C 202.722,186.584 202.222,185.918 201.5,185.5C 201.178,189.511 199.178,192.511 195.5,194.5C 191.419,200.621 187.419,206.621 183.5,212.5C 183.262,210.596 182.262,209.262 180.5,208.5C 180.506,205.482 181.506,202.816 183.5,200.5C 184.425,199.438 185.425,199.438 186.5,200.5C 185.972,199.153 185.805,197.819 186,196.5C 187.535,193.706 189.702,191.706 192.5,190.5C 192.369,189.761 192.536,189.094 193,188.5C 197.71,183.953 202.543,179.619 207.5,175.5C 208.176,176.602 208.842,177.602 209.5,178.5 Z"/></g>
<g><path style="opacity:0.9" fill="#1c3687" d="M 362.5,197.5 C 363.675,197.281 364.675,197.614 365.5,198.5C 367.36,202.083 369.027,205.749 370.5,209.5C 370,209.833 369.5,210.167 369,210.5C 368,209.833 367,209.167 366,208.5C 361.458,210.403 356.958,212.403 352.5,214.5C 351.571,215.689 351.238,217.022 351.5,218.5C 350.5,218.5 349.5,218.5 348.5,218.5C 347.404,214.303 345.738,210.303 343.5,206.5C 345.259,205.246 346.759,205.579 348,207.5C 352.679,205.076 357.512,203.076 362.5,201.5C 362.5,200.167 362.5,198.833 362.5,197.5 Z"/></g>
<g><path style="opacity:0.937" fill="#1c3686" d="M 324.5,199.5 C 325.552,199.351 326.552,199.517 327.5,200C 329.291,202.414 330.957,204.914 332.5,207.5C 329.833,208.833 327.167,208.833 324.5,207.5C 323.365,205.201 322.032,203.034 320.5,201C 322.058,200.79 323.391,200.29 324.5,199.5 Z"/></g>
<g><path style="opacity:0.893" fill="#1c3686" d="M 180.5,208.5 C 180.738,210.404 181.738,211.738 183.5,212.5C 183.459,216.236 182.126,219.236 179.5,221.5C 179.027,220.094 178.027,219.427 176.5,219.5C 175.836,216.069 176.503,212.736 178.5,209.5C 178.957,208.702 179.624,208.369 180.5,208.5 Z"/></g>
<g><path style="opacity:0.869" fill="#1c3687" d="M 366.5,234.5 C 370.931,235.47 373.265,233.803 373.5,229.5C 374.675,229.281 375.675,229.614 376.5,230.5C 377.642,233.399 378.308,236.399 378.5,239.5C 376.535,238.871 374.535,238.204 372.5,237.5C 351.333,243.993 349,239.493 365.5,224C 362.168,224.161 358.835,224.661 355.5,225.5C 355.5,226.833 355.5,228.167 355.5,229.5C 354.5,229.5 353.5,229.5 352.5,229.5C 351.833,226.167 351.167,222.833 350.5,219.5C 356.835,221.718 363.168,221.385 369.5,218.5C 370.148,216.851 371.148,215.518 372.5,214.5C 374.296,218.345 375.13,222.345 375,226.5C 371.667,228.667 368.834,231.334 366.5,234.5 Z"/></g>
<g><path style="opacity:0.841" fill="#1c3686" d="M 176.5,219.5 C 176.973,220.906 177.973,221.573 179.5,221.5C 180.396,224.127 180.23,226.794 179,229.5C 178.583,230.756 177.75,231.423 176.5,231.5C 176.158,230.662 175.492,230.328 174.5,230.5C 174.5,229.833 174.167,229.5 173.5,229.5C 172.621,226.883 172.788,224.216 174,221.5C 174.417,220.244 175.25,219.577 176.5,219.5 Z"/></g>
<g><path style="opacity:0.876" fill="#1b3687" d="M 338.5,229.5 C 337.081,228.549 335.415,228.216 333.5,228.5C 331.518,225.081 330.518,221.581 330.5,218C 328.583,215.502 326.916,212.835 325.5,210C 328.227,209.182 330.894,209.348 333.5,210.5C 334.695,212.751 335.695,215.085 336.5,217.5C 330.041,218.97 330.374,219.637 337.5,219.5C 337.955,222.203 338.622,224.87 339.5,227.5C 339.457,228.416 339.124,229.083 338.5,229.5 Z"/></g>
<g><path style="opacity:0.837" fill="#1c3687" d="M 135.5,225.5 C 138.914,225.736 142.247,226.402 145.5,227.5C 143.941,229.131 141.941,229.964 139.5,230C 137.109,231.309 137.109,232.309 139.5,233C 144.035,233.672 148.535,234.506 153,235.5C 154.168,234.491 155.335,233.491 156.5,232.5C 157.435,236.826 157.268,241.16 156,245.5C 154.951,246.517 153.784,246.684 152.5,246C 153.741,244.513 153.241,243.68 151,243.5C 146.167,242.104 141.334,241.771 136.5,242.5C 137.436,243.974 138.77,244.974 140.5,245.5C 141.386,246.325 141.719,247.325 141.5,248.5C 138.482,248.296 135.482,247.963 132.5,247.5C 133.5,240.167 134.5,232.833 135.5,225.5 Z"/></g>
<g><path style="opacity:0.947" fill="#1b3787" d="M 333.5,228.5 C 334.919,229.451 336.585,229.784 338.5,229.5C 340.172,232.342 341.172,235.509 341.5,239C 341.43,239.765 341.097,240.265 340.5,240.5C 338.594,239.518 336.594,238.518 334.5,237.5C 333.833,234.833 333.167,232.167 332.5,229.5C 332.624,228.893 332.957,228.56 333.5,228.5 Z"/></g>
<g><path style="opacity:0.829" fill="#1b3686" d="M 173.5,229.5 C 174.167,229.5 174.5,229.833 174.5,230.5C 174.842,231.338 175.508,231.672 176.5,231.5C 177.141,232.482 177.807,233.482 178.5,234.5C 177.055,239.053 176.721,243.553 177.5,248C 177.431,249.986 176.765,251.486 175.5,252.5C 174.432,251.566 173.099,251.232 171.5,251.5C 170.411,247.922 170.245,244.255 171,240.5C 172.337,241.765 173.837,242.265 175.5,242C 173.373,240.949 171.707,239.449 170.5,237.5C 170.661,234.3 171.661,231.633 173.5,229.5 Z"/></g>
<g><path style="opacity:0.949" fill="#1c3687" d="M 363.5,245.5 C 373.07,244.081 378.737,248.081 380.5,257.5C 379.123,260.906 378.789,264.24 379.5,267.5C 376.167,267.5 372.833,267.5 369.5,267.5C 369.5,266.5 369.5,265.5 369.5,264.5C 375.346,264.176 377.346,261.343 375.5,256C 371.259,254.543 366.926,254.209 362.5,255C 359.616,256.037 358.95,257.871 360.5,260.5C 361.736,261.246 363.07,261.579 364.5,261.5C 364.5,260.5 364.5,259.5 364.5,258.5C 365.5,258.5 366.5,258.5 367.5,258.5C 367.5,262.833 367.5,267.167 367.5,271.5C 363.985,270.206 360.318,269.372 356.5,269C 355.663,267.989 355.33,266.822 355.5,265.5C 356.552,265.649 357.552,265.483 358.5,265C 355.321,260.789 354.821,256.289 357,251.5C 358.494,248.686 360.66,246.686 363.5,245.5 Z"/></g>
<g><path style="opacity:0.8" fill="#1c3687" d="M 340.5,240.5 C 341.589,244.078 341.755,247.745 341,251.5C 339.663,250.235 338.163,249.735 336.5,250C 338.349,251.093 340.016,252.426 341.5,254C 341.162,257.254 340.162,260.088 338.5,262.5C 338.5,261.833 338.167,261.5 337.5,261.5C 337.158,260.662 336.492,260.328 335.5,260.5C 335.5,259.833 335.167,259.5 334.5,259.5C 333.773,255.989 334.107,252.489 335.5,249C 334.213,245.875 334.213,242.709 335.5,239.5C 337.071,240.309 338.738,240.643 340.5,240.5 Z"/></g>
<g><path style="opacity:0.886" fill="#1b3687" d="M 145.5,252.5 C 155.255,253.18 158.255,258.013 154.5,267C 155.973,267.71 156.64,268.876 156.5,270.5C 153.5,270.5 150.5,270.5 147.5,270.5C 149.9,267.904 151.9,264.904 153.5,261.5C 153.135,260.098 152.301,259.098 151,258.5C 148.777,261.468 147.11,264.802 146,268.5C 141.749,273.726 137.415,273.726 133,268.5C 132.216,265.24 132.383,262.073 133.5,259C 132.643,258.311 131.977,257.478 131.5,256.5C 134.438,255.511 137.438,254.844 140.5,254.5C 140.649,255.552 140.483,256.552 140,257.5C 136.036,259.189 134.536,262.189 135.5,266.5C 136.675,266.719 137.675,266.386 138.5,265.5C 139.578,260.334 141.912,256.001 145.5,252.5 Z"/></g>
<g><path style="opacity:0.922" fill="#1c3687" d="M 171.5,251.5 C 172.568,252.434 173.901,252.768 175.5,252.5C 177.427,255.488 178.761,258.821 179.5,262.5C 179.376,263.107 179.043,263.44 178.5,263.5C 177.081,262.549 175.415,262.216 173.5,262.5C 171.765,259.857 170.765,256.857 170.5,253.5C 170.543,252.584 170.876,251.917 171.5,251.5 Z"/></g>
<g><path style="opacity:0.82" fill="#1b3686" d="M 334.5,259.5 C 335.167,259.5 335.5,259.833 335.5,260.5C 335.842,261.338 336.508,261.672 337.5,261.5C 338.167,261.5 338.5,261.833 338.5,262.5C 339.408,265.352 339.075,268.185 337.5,271C 337.164,272.03 336.497,272.53 335.5,272.5C 336.2,276.791 334.867,280.458 331.5,283.5C 331.262,281.596 330.262,280.262 328.5,279.5C 330.209,272.644 332.209,265.978 334.5,259.5 Z"/></g>
<g><path style="opacity:0.903" fill="#1c3787" d="M 173.5,262.5 C 174.919,263.451 176.585,263.784 178.5,263.5C 180.042,270.189 182.708,276.355 186.5,282C 183.833,282.667 181.167,282.667 178.5,282C 177.071,279.31 176.071,276.477 175.5,273.5C 177.199,273.66 178.866,273.494 180.5,273C 178.423,272.808 176.423,272.308 174.5,271.5C 172.953,268.425 172.62,265.425 173.5,262.5 Z"/></g>
<g><path style="opacity:0.976" fill="#1b3687" d="M 179.5,283.5 C 181.857,283.337 184.19,283.503 186.5,284C 188.167,286.333 189.833,288.667 191.5,291C 189.179,291.837 186.845,292.17 184.5,292C 182.18,289.522 180.514,286.689 179.5,283.5 Z"/></g>
<g><path style="opacity:0.936" fill="#1c3788" d="M 192.5,301.5 C 191.761,301.631 191.094,301.464 190.5,301C 188.954,298.743 187.288,296.576 185.5,294.5C 187.622,292.885 189.955,292.385 192.5,293C 194.283,294.739 195.95,296.572 197.5,298.5C 195.64,299.325 193.974,300.325 192.5,301.5 Z"/></g>
<g><path style="opacity:0.892" fill="#1c3687" d="M 328.5,279.5 C 328.738,281.404 329.738,282.738 331.5,283.5C 331.071,287.024 329.571,290.024 327,292.5C 326.617,291.944 326.117,291.611 325.5,291.5C 325.523,296.125 323.523,299.458 319.5,301.5C 317.078,305.428 314.078,308.928 310.5,312C 308.333,313.5 306.167,315 304,316.5C 302.85,314.246 302.516,311.913 303,309.5C 304.684,307.649 306.517,305.982 308.5,304.5C 309.182,305.243 309.849,305.909 310.5,306.5C 310.985,302.02 313.319,299.02 317.5,297.5C 320.407,291.888 323.407,286.222 326.5,280.5C 326.957,279.702 327.624,279.369 328.5,279.5 Z M 319.5,301.5 C 319.539,300.244 319.039,299.244 318,298.5C 317.415,299.998 317.915,300.998 319.5,301.5 Z"/></g>
<g><path style="opacity:0.827" fill="#1c3687" d="M 300.5,310.5 C 301.775,312.608 302.275,314.942 302,317.5C 299.502,319.417 296.835,321.084 294,322.5C 293.182,319.773 293.348,317.106 294.5,314.5C 296.813,313.5 298.813,312.166 300.5,310.5 Z"/></g>
<g><path style="opacity:0.547" fill="#1b3788" d="M 222.5,318.5 C 220.596,318.738 219.262,319.738 218.5,321.5C 214.813,320.824 211.48,319.324 208.5,317C 210.116,316.385 211.449,315.385 212.5,314C 210.406,315.094 208.073,315.428 205.5,315C 202.921,313.924 201.254,312.091 200.5,309.5C 196.833,307.833 194.167,305.167 192.5,301.5C 194.819,300.833 197.153,300.666 199.5,301C 201.351,302.684 203.018,304.517 204.5,306.5C 210.621,310.581 216.621,314.581 222.5,318.5 Z M 200.5,309.5 C 201.756,309.539 202.756,309.039 203.5,308C 202.002,307.415 201.002,307.915 200.5,309.5 Z"/></g>
<g><path style="opacity:0.837" fill="#1b3688" d="M 291.5,315.5 C 292.8,318.024 292.8,320.691 291.5,323.5C 288.687,325.275 285.687,326.108 282.5,326C 283.249,324.266 283.749,322.433 284,320.5C 286.479,318.686 288.979,317.019 291.5,315.5 Z"/></g>
<g><path style="opacity:0.856" fill="#1c3786" d="M 222.5,318.5 C 225.947,318.814 229.28,319.648 232.5,321C 230.833,322.667 229.167,324.333 227.5,326C 224.953,325.661 222.453,324.827 220,323.5C 218.97,323.164 218.47,322.497 218.5,321.5C 220.404,321.262 221.738,320.262 222.5,318.5 Z"/></g>
<g><path style="opacity:0.918" fill="#1b3687" d="M 281.5,327.5 C 283.853,330.391 284.186,333.724 282.5,337.5C 283.025,338.192 283.692,338.692 284.5,339C 287.482,339.498 290.482,339.665 293.5,339.5C 293.5,342.167 293.5,344.833 293.5,347.5C 289.864,347.406 286.364,346.739 283,345.5C 282.612,346.428 281.945,347.095 281,347.5C 279,346.833 277,346.167 275,345.5C 270.81,347.649 266.476,347.982 262,346.5C 260.97,346.164 260.47,345.497 260.5,344.5C 262.384,344.288 263.717,343.288 264.5,341.5C 266.423,340.692 268.423,340.192 270.5,340C 268.08,339.71 265.746,339.21 263.5,338.5C 263.158,337.662 262.492,337.328 261.5,337.5C 261.158,336.662 260.492,336.328 259.5,336.5C 259.577,335.25 260.244,334.417 261.5,334C 263.167,333.667 264.833,333.333 266.5,333C 263.666,332.955 261.166,332.121 259,330.5C 256.61,331.724 254.11,332.224 251.5,332C 250.119,325.98 249.453,326.147 249.5,332.5C 248.5,332.5 247.5,332.5 246.5,332.5C 243.345,331.558 240.345,330.224 237.5,328.5C 238.167,328.5 238.5,328.167 238.5,327.5C 239.167,327.5 239.5,327.167 239.5,326.5C 240.167,326.5 240.5,326.167 240.5,325.5C 241.167,325.5 241.5,325.167 241.5,324.5C 242.167,324.5 242.833,324.5 243.5,324.5C 242.403,320.394 244.069,318.06 248.5,317.5C 251.028,317.763 253.361,318.596 255.5,320C 256.337,321.011 256.67,322.178 256.5,323.5C 262.201,317.874 268.868,316.04 276.5,318C 278.208,319.062 278.874,320.229 278.5,321.5C 279.748,320.96 280.915,320.293 282,319.5C 281.917,322.119 281.75,324.786 281.5,327.5 Z M 272.5,323.5 C 271.837,325.804 271.17,328.137 270.5,330.5C 272.095,331.434 273.761,331.434 275.5,330.5C 276.686,332.194 276.519,333.861 275,335.5C 272.948,334.277 270.781,333.277 268.5,332.5C 269.577,330.271 270.244,327.937 270.5,325.5C 268.5,325.833 266.5,326.167 264.5,326.5C 264.5,326.167 264.5,325.833 264.5,325.5C 267.006,324.25 269.673,323.584 272.5,323.5 Z M 243.5,324.5 C 245.893,325.21 248.393,325.877 251,326.5C 251.167,326.167 251.333,325.833 251.5,325.5C 248.914,324.52 246.247,324.187 243.5,324.5 Z"/></g>
<g><path style="opacity:0.875" fill="#1b3787" d="M 241.5,324.5 C 240.833,324.5 240.5,324.833 240.5,325.5C 239.833,325.5 239.5,325.833 239.5,326.5C 238.833,326.5 238.5,326.833 238.5,327.5C 237.833,327.5 237.5,327.833 237.5,328.5C 236.533,329.806 235.199,330.473 233.5,330.5C 234.659,331.74 235.659,333.074 236.5,334.5C 236.328,335.492 236.662,336.158 237.5,336.5C 238.562,338.234 238.562,339.901 237.5,341.5C 235.097,341.552 232.764,341.219 230.5,340.5C 230.149,337.762 229.482,335.096 228.5,332.5C 229.643,324.693 233.976,319.693 241.5,317.5C 241.838,319.655 241.838,321.989 241.5,324.5 Z"/></g>
<g><path style="opacity:0.818" fill="#1c3687" d="M 246.5,332.5 C 247.718,333.161 249.051,333.828 250.5,334.5C 249.807,335.518 249.141,336.518 248.5,337.5C 247.833,337.5 247.5,337.833 247.5,338.5C 244.043,339.142 240.71,338.476 237.5,336.5C 237.672,335.508 237.338,334.842 236.5,334.5C 236.918,333.778 237.584,333.278 238.5,333C 241.146,332.503 243.813,332.336 246.5,332.5 Z"/></g>
<g><path style="opacity:0.725" fill="#1c3687" d="M 230.5,340.5 C 229.77,342.045 228.437,342.878 226.5,343C 221.481,343.411 216.481,343.911 211.5,344.5C 211.5,341.833 211.5,339.167 211.5,336.5C 215.151,336.254 218.651,336.254 222,336.5C 222.333,335.833 222.667,335.167 223,334.5C 224.626,334.854 226.459,334.854 228.5,334.5C 228.259,336.898 228.926,338.898 230.5,340.5 Z"/></g>
<g><path style="opacity:0.9" fill="#1c3687" d="M 259.5,336.5 C 259.842,337.338 260.508,337.672 261.5,337.5C 261.842,338.338 262.508,338.672 263.5,338.5C 263.385,340.947 262.385,342.947 260.5,344.5C 258.486,344.608 256.82,343.942 255.5,342.5C 254.781,344.888 253.115,346.388 250.5,347C 248.288,347.789 246.288,347.622 244.5,346.5C 245.837,345.685 246.837,344.518 247.5,343C 246.448,341.284 247.114,340.284 249.5,340C 248.584,339.722 247.918,339.222 247.5,338.5C 248.167,338.5 248.5,338.167 248.5,337.5C 251.948,335.318 255.615,334.984 259.5,336.5 Z"/></g>
<g><path style="opacity:0.77" fill="#1c3687" d="M 244.5,346.5 C 240.281,347.485 236.614,346.318 233.5,343C 235.058,342.79 236.391,342.29 237.5,341.5C 240.096,340.735 242.763,340.401 245.5,340.5C 245.483,342.565 245.15,344.565 244.5,346.5 Z"/></g>
<g><path style="opacity:0.904" fill="#1c3687" d="M 194.5,339.5 C 198.714,340.941 202.714,342.941 206.5,345.5C 205.653,346.845 204.487,347.845 203,348.5C 202.146,352.225 201.479,355.892 201,359.5C 203.371,356.794 206.037,354.461 209,352.5C 209.507,351.004 209.007,349.837 207.5,349C 209.414,347.173 211.414,347.173 213.5,349C 215.439,349.908 216.439,351.408 216.5,353.5C 215.127,353.343 213.793,353.51 212.5,354C 207.596,358.739 202.263,362.906 196.5,366.5C 193.661,365.998 192.328,364.331 192.5,361.5C 193.268,355.621 194.268,349.788 195.5,344C 194.852,342.56 194.519,341.06 194.5,339.5 Z"/></g>
<g><path style="opacity:0.951" fill="#1c3687" d="M 306.5,343.5 C 313.69,348.259 320.69,353.259 327.5,358.5C 324.003,361.083 320.336,363.416 316.5,365.5C 315.355,364.224 315.355,362.891 316.5,361.5C 315.758,360.713 314.925,360.047 314,359.5C 308.365,361.461 308.532,363.461 314.5,365.5C 312.469,367.522 310.135,369.189 307.5,370.5C 306.5,370.167 305.833,369.5 305.5,368.5C 306.218,361.276 305.551,354.109 303.5,347C 304.071,345.401 305.071,344.234 306.5,343.5 Z M 308.5,354.5 C 308.5,355.5 308.5,356.5 308.5,357.5C 312.06,357.283 312.06,356.283 308.5,354.5 Z"/></g>
<g><path style="opacity:0.859" fill="#1c3686" d="M 227.5,353.5 C 229.03,354.067 230.53,354.733 232,355.5C 232.607,362.506 233.273,369.506 234,376.5C 236,377.833 236,379.167 234,380.5C 230.363,378.799 226.53,377.799 222.5,377.5C 222.5,376.5 222.5,375.5 222.5,374.5C 223.552,374.649 224.552,374.483 225.5,374C 224.663,372.989 224.33,371.822 224.5,370.5C 222.669,369.948 221.003,369.948 219.5,370.5C 219.291,371.086 218.957,371.586 218.5,372C 221.521,372.849 222.021,374.349 220,376.5C 217.11,375.406 214.277,374.24 211.5,373C 217.394,366.942 222.727,360.442 227.5,353.5 Z M 223.5,363.5 C 222.913,364.767 222.913,365.767 223.5,366.5C 224.776,365.386 224.776,364.386 223.5,363.5 Z"/></g>
<g><path style="opacity:0.934" fill="#1c3686" d="M 290.5,363.5 C 290.313,361.436 289.813,359.436 289,357.5C 287.155,356.95 285.655,355.95 284.5,354.5C 287.593,352.691 290.926,351.691 294.5,351.5C 294.214,353.277 293.547,354.944 292.5,356.5C 294.013,362.218 295.679,367.884 297.5,373.5C 295.684,374.942 293.684,375.442 291.5,375C 287.352,371.686 283.352,368.186 279.5,364.5C 279.167,364.667 278.833,364.833 278.5,365C 280.002,368.005 281.002,371.171 281.5,374.5C 282.833,374.5 284.167,374.5 285.5,374.5C 285.67,375.822 285.337,376.989 284.5,378C 281.497,379.31 278.497,379.476 275.5,378.5C 276.313,377.186 277.313,376.019 278.5,375C 276.663,370.319 275.329,365.486 274.5,360.5C 273.167,360.5 271.833,360.5 270.5,360.5C 270.5,359.5 270.5,358.5 270.5,357.5C 274.087,356.244 277.754,355.744 281.5,356C 284.665,358.335 287.665,360.835 290.5,363.5 Z"/></g>
<g><path style="opacity:0.878" fill="#1c3687" d="M 256.5,378.5 C 256.5,379.5 256.5,380.5 256.5,381.5C 251.807,381.46 247.141,381.127 242.5,380.5C 242.5,379.5 242.5,378.5 242.5,377.5C 243.5,377.5 244.5,377.5 245.5,377.5C 245.5,371.833 245.5,366.167 245.5,360.5C 244.5,360.5 243.5,360.5 242.5,360.5C 242.5,359.5 242.5,358.5 242.5,357.5C 249.555,357.27 256.555,357.77 263.5,359C 267.631,363.026 267.298,366.693 262.5,370C 264.121,372.166 264.955,374.666 265,377.5C 269.245,373.731 270.245,374.731 268,380.5C 264.927,381.617 261.76,381.784 258.5,381C 257.934,380.005 257.267,379.172 256.5,378.5 Z M 253.5,361.5 C 253.5,363.5 253.5,365.5 253.5,367.5C 254.552,367.649 255.552,367.483 256.5,367C 259.587,363.118 258.587,361.284 253.5,361.5 Z M 256.5,378.5 C 256.663,376.143 256.497,373.81 256,371.5C 255.586,371.043 255.086,370.709 254.5,370.5C 253.52,373.086 253.187,375.753 253.5,378.5C 254.5,378.5 255.5,378.5 256.5,378.5 Z"/></g>
</svg>
