<?xml version="1.0" encoding="UTF-8"?>
<!DOCTYPE svg PUBLIC "-//W3C//DTD SVG 1.1//EN" "http://www.w3.org/Graphics/SVG/1.1/DTD/svg11.dtd">
<svg xmlns="http://www.w3.org/2000/svg" version="1.1" width="200px" height="200px" style="shape-rendering:geometricPrecision; text-rendering:geometricPrecision; image-rendering:optimizeQuality; fill-rule:evenodd; clip-rule:evenodd" xmlns:xlink="http://www.w3.org/1999/xlink">
<g><path style="opacity:0.9" fill="#1c5e72" d="M 47.5,69.5 C 50.0444,69.1043 52.2111,69.771 54,71.5C 54.4986,75.1516 54.6653,78.8183 54.5,82.5C 58.6372,82.1463 62.6372,82.6463 66.5,84C 69.0801,86.1203 69.0801,88.287 66.5,90.5C 60.2182,91.626 53.8849,91.7927 47.5,91C 47,90.5 46.5,90 46,89.5C 45.3333,83.5 45.3333,77.5 46,71.5C 46.7172,70.9558 47.2172,70.2891 47.5,69.5 Z"/></g>
<g><path style="opacity:0.98" fill="#ec641c" d="M 26.5,91.5 C 32.2896,91.0962 37.9562,91.5962 43.5,93C 44,93.5 44.5,94 45,94.5C 45.6667,100.5 45.6667,106.5 45,112.5C 42.541,115.1 40.041,115.1 37.5,112.5C 36.5672,108.571 36.2338,104.571 36.5,100.5C 32.4295,100.766 28.4295,100.433 24.5,99.5C 22.8361,96.0901 23.5027,93.4234 26.5,91.5 Z"/></g>
<g><path style="opacity:0.949" fill="#266175" d="M 58.5,99.5 C 61.8499,99.335 65.1832,99.5017 68.5,100C 70.5547,100.687 72.2214,101.854 73.5,103.5C 71.8307,104.671 70.3307,106.004 69,107.5C 66.286,105.653 63.4527,105.32 60.5,106.5C 63.2796,108.117 66.2796,109.284 69.5,110C 75.2496,115.508 74.583,120.175 67.5,124C 61.8864,125.324 56.8864,124.157 52.5,120.5C 53.604,118.611 54.9373,116.945 56.5,115.5C 58.5583,117.077 60.8916,118.077 63.5,118.5C 65.0004,118.547 66.0004,117.881 66.5,116.5C 61.751,115.613 57.5843,113.613 54,110.5C 52.7758,105.626 54.2758,101.959 58.5,99.5 Z"/></g>
<g><path style="opacity:0.917" fill="#1f5e73" d="M 76.5,101.5 C 78.5,101.5 80.5,101.5 82.5,101.5C 82.5,103.167 82.5,104.833 82.5,106.5C 83.8333,106.5 85.1667,106.5 86.5,106.5C 86.5,108.167 86.5,109.833 86.5,111.5C 85.1667,111.5 83.8333,111.5 82.5,111.5C 82.5,113.833 82.5,116.167 82.5,118.5C 86.35,118.701 87.35,120.534 85.5,124C 82.5337,124.895 79.8671,124.395 77.5,122.5C 76.5741,118.906 76.2408,115.24 76.5,111.5C 75.5,111.5 74.5,111.5 73.5,111.5C 73.5,109.833 73.5,108.167 73.5,106.5C 74.5,106.5 75.5,106.5 76.5,106.5C 76.5,104.833 76.5,103.167 76.5,101.5 Z"/></g>
<g><path style="opacity:0.921" fill="#10576c" d="M 95.5,107.5 C 96.4972,107.47 97.1639,107.97 97.5,109C 97.0217,110.303 96.355,111.469 95.5,112.5C 95.1667,112.5 94.8333,112.5 94.5,112.5C 93.5184,115.962 93.185,119.629 93.5,123.5C 91.8333,123.5 90.1667,123.5 88.5,123.5C 88.5,117.833 88.5,112.167 88.5,106.5C 90.9496,106.298 93.283,106.631 95.5,107.5 Z"/></g>
<g><path style="opacity:0.948" fill="#2c6478" d="M 95.5,112.5 C 96.355,111.469 97.0217,110.303 97.5,109C 97.1639,107.97 96.4972,107.47 95.5,107.5C 96.3739,106.475 97.5405,105.808 99,105.5C 101.434,106.322 103.934,106.656 106.5,106.5C 108.026,116.248 110.026,116.581 112.5,107.5C 114.686,106.779 116.853,106.113 119,105.5C 117.222,113.82 114.056,121.653 109.5,129C 106.854,129.497 104.187,129.664 101.5,129.5C 101.966,127.799 101.966,126.299 101.5,125C 103.167,124.667 104.833,124.333 106.5,124C 104.476,119.597 102.642,115.097 101,110.5C 100.667,111.167 100.333,111.833 100,112.5C 98.5861,111.587 97.0861,111.587 95.5,112.5 Z"/></g>
<g><path style="opacity:0.949" fill="#205e73" d="M 127.5,107.5 C 129.379,107.393 129.712,107.893 128.5,109C 130.119,109.236 131.119,110.069 131.5,111.5C 126.672,111.385 125.339,113.552 127.5,118C 128.793,118.49 130.127,118.657 131.5,118.5C 133.379,118.393 133.712,118.893 132.5,120C 127.521,121.11 127.854,122.11 133.5,123C 131.866,123.494 130.199,123.66 128.5,123.5C 127.883,123.389 127.383,123.056 127,122.5C 126.503,124.81 126.337,127.143 126.5,129.5C 124.5,129.5 122.5,129.5 120.5,129.5C 120.5,121.833 120.5,114.167 120.5,106.5C 122.95,106.298 125.283,106.631 127.5,107.5 Z"/></g>
<g><path style="opacity:0.949" fill="#2a6478" d="M 128.5,123.5 C 130.199,123.66 131.866,123.494 133.5,123C 127.854,122.11 127.521,121.11 132.5,120C 133.712,118.893 133.379,118.393 131.5,118.5C 132.833,116.167 132.833,113.833 131.5,111.5C 131.119,110.069 130.119,109.236 128.5,109C 129.712,107.893 129.379,107.393 127.5,107.5C 134.447,104.542 138.447,107.042 139.5,115C 138.845,122.286 135.179,125.12 128.5,123.5 Z"/></g>
<g><path style="opacity:0.945" fill="#296377" d="M 147.5,105.5 C 155.144,105.811 159.144,109.811 159.5,117.5C 155.486,117.334 151.486,117.501 147.5,118C 148.609,118.638 149.775,119.138 151,119.5C 155.184,117.727 157.018,118.893 156.5,123C 145.499,126.644 140.332,122.811 141,111.5C 142.436,108.558 144.603,106.558 147.5,105.5 Z M 149.5,110.5 C 152.99,112.336 152.323,112.836 147.5,112C 148.416,111.722 149.082,111.222 149.5,110.5 Z"/></g>
<g><path style="opacity:0.949" fill="#266175" d="M 171.5,112.5 C 175.841,115.211 176.508,118.711 173.5,123C 168.549,125.174 163.882,124.674 159.5,121.5C 160.026,119.77 161.026,118.436 162.5,117.5C 164.735,118.752 167.069,119.252 169.5,119C 166.414,118.016 163.581,116.516 161,114.5C 159.52,108.638 161.853,105.638 168,105.5C 170.799,105.82 173.299,106.82 175.5,108.5C 175.035,110.808 173.701,112.142 171.5,112.5 Z M 171.5,112.5 C 169.571,112.769 167.905,112.269 166.5,111C 168.535,110.401 170.201,110.901 171.5,112.5 Z"/></g>
<g><path style="opacity:0.706" fill="#618f9e" d="M 94.5,112.5 C 94.5,116.5 94.5,120.5 94.5,124.5C 92.2646,124.795 90.2646,124.461 88.5,123.5C 90.1667,123.5 91.8333,123.5 93.5,123.5C 93.185,119.629 93.5184,115.962 94.5,112.5 Z"/></g>
</svg>
