<svg height="24" viewBox="0 0 24 24" width="24" xmlns="http://www.w3.org/2000/svg"><path d="m2.65603874 5.16700815c.03038753.1666383.38329625-.23281454.10708436.38944891-.53175838.37174241-.06429759.16269308-.10708436-.38944891zm.00262549.03229721c-.0016-.0203-.0026-.0402-.0049-.0609-.0004.0238.0016.0433.0049.0609zm-.44575748 1.76047343c-.34436075.4401261-.15841909.53387188-.19472445.83328538.12460299-.38240388.14714706-.61202468.19472445-.83328538zm10.82660435-6.95977879c-.3715076.0312799-.7416061.0498318-1.107055.09689256l.1609553.02198047c.268932-.0985364.6609172-.05401185.9460997-.11887303zm-.6109914.467239.0101918-.0397-.150012.0659zm-.4136368-.15768066c.2121491.03809009.458631.06730345.4238286.11798066.232204-.05086507.2849477-.09778493-.4238286-.11798066zm-2.21486149 12.89201736c-.13827033-.1529239-.22022744-.3371278-.31181275-.5206742.08759313.3226151.26710033.5996255.43416132.8814264zm4.31719049-.2367128c.1433897-.1121098.2734408-.2253937.3894489-.3355779-.3234606.0791391-.6523692.0808769-.9837671.0505833-.3976681.0057299.0751938.2049162.5943182.2849946zm1.5399012-.8169879c.2370885-.3267951.4097855-.6846823.4703258-1.0547339-.0531665.2637657-.1961335.4916017-.3310692.731837-.743156.4679775-.0696987-.2778557-.0004227-.5614414-.7992344 1.0062173-.1097614.6033828-.1388339.8843383zm.7880563-2.0501018c.0478592-.71610318-.1412292-.48977005-.2046814-.21642314.0740197.03860673.1329631.50479944.2046814.21642314zm-4.558412 5.1470003c-.5721968-.2679927-1.0961117-.672471-1.5270793-1.1677831.2286345.3347795.4753042.6599778.7942559.9156182-.5395548-.1828418-1.26035468-1.3074155-1.47081302-1.3533021.93017792 1.6654436 3.77354942 2.920538 5.26263262 2.297664-.6890972.0255969-1.564277.0142779-2.3382903-.271844-.294529-.1515619-.685246-.4504118-.6972695-.55341-.0147006.0378552-.0384658.0760862-.0234364.133057zm.039848-.1567283c-.0131.0126-.0186.0294-.0161.0503.0066-.0167.0121-.0334.0161-.0503zm-2.80018218-1.5833456c.26132341.3551162.46863497.7396336.80242818 1.0172075-.24014137-.4687289-.4184744-.662514-.74667856-1.2961434zm11.33337638-4.92860454c.0066693-.36512009.1015423-.19134284.1384582-.28123734-.0716714-.0411899-.2597265-.32111217-.3744195-.8580369.0830373-.12610593.2219182.32712392.3347795.34567582-.0726577-.42692843-.1976834-.75245549-.2027088-1.08000211-.3297071-.68914421-.1166186.09191407-.3841886-.29579706-.3510301-1.09484363.2911943-.25418445.3345447-.75156312.5320401.77081952.8355398 1.96532675.9746085 2.4601692-.1062389-.60333582-.2779027-1.18769704-.4875156-1.75313063.1617068.06796099-.2601492-1.24133315.2101765-.37423165-.502498-1.84833239-2.1499533-3.57539643-3.6658075-4.38576201.185331.16964417.4197425.38292052.3355309.41631393-.7536766-.44895587-.6212771-.48380526-.729066-.67345729-.6142321-.24981654-.6542948.02014877-1.0611214.00037573-1.1576383-.61385638-1.3806837-.54861946-2.4459383-.93332472l.0488455.22647403c-.767203-.25540559-.8935438.09693952-1.7222734.00089237-.0503954-.0393582.2655974-.14249735.5255588-.18025867-.7414183.09778492-.7067098-.14611379-1.4321124.02686502.1788027-.12540142.3678911-.2083918.5584825-.31505345-.60451.03672805-1.44324355.35173454-1.1843624.06523691-.98602152.44003218-2.73741438 1.05764591-3.7202891 1.97922893l-.0308572-.2065601c-.45036487.54063511-1.96387077 1.61467244-2.08448158 2.31485385l-.12037596.02813313c-.23436446.39677572-.3859264.84648306-.57177412 1.25467173-.30655246.52227108-.44928463.20097104-.40565246.28283421-.60281918 1.22235856-.90223268 2.24933513-1.16092595 3.09159118.18425085.27560132.00441489 1.65868035.07411365 2.76564145-.30284208 5.4669852 3.83690771 10.7752226 8.36192632 12.000634.6630776.2375112 1.6496158.2283058 2.4884433.2527285-.9898259-.2832099-1.1179514-.1499651-2.0820393-.4862945-.6955317-.3273588-.848033-.7015904-1.34062107-1.1288946l.19491232.3445017c-.96610756-.3419655-.56191108-.423265-1.34785391-.6722362l.20820393-.2718909c-.31317478-.0236243-.82952804-.5279071-.97071031-.8068431l-.34257601.0134795c-.41152331-.5079932-.63085838-.8738178-.61493663-1.1574504l-.11065384.1970728c-.12540142-.215249-1.51444523-1.9045047-.79373932-1.5115333-.13390241-.1223016-.31190667-.1990454-.50489335-.5496058l.14677132-.1675776c-.34675606-.4462788-.6381852-1.0181938-.61611079-1.2085973.18495535.2498166.31326871.2965016.4404079.3391005-.87574339-2.1726853-.92487069-.1197184-1.58818314-2.211339l.1404308-.0116947c-.10769493-.1617068-.17297881-.3376915-.25939777-.5103415l.06105687-.6085961c-.63048264-.7289251-.17645436-3.0995286-.08543265-4.39961725.06307644-.52870553.52626326-1.09150898.87860837-1.9740156l-.21473232-.03700986c.41034914-.71572743 2.34265821-2.87422871 3.23761104-2.76319914.43359771-.54462729-.08594929-.00197261-.17081834-.1391627.95234628-.9854579 1.25175979-.69618923 1.89440684-.87353596.69318335-.41142937-.59492876.16043867-.26620796-.15696312 1.19802972-.30594189.84911321-.69562563 2.41221602-.85108582.1648536.09383972-.3826856.14489265-.5201106.26672459.9983268-.48836103 3.1590825-.37737842 4.5624043.27099858 1.6287155.76123828 3.458402 3.01094914 3.5304961 5.12764995l.082192.02207441c-.0416126.84150458.128736 1.81456324-.1664035 2.70843582l.200971-.4231711c.0234365.6431637-.18829.9550704-.3790692 1.5075411l-.3437502.1717577c-.2812373.5461302.0271469.3467091-.1740121.7810583-.4390928.3906231-1.3326366 1.221701-1.6183828 1.2976933-.2089554-.0046966.1412293-.2464819.1871159-.3410261-.5876959.403492-.4716879.6058251-1.3705389.8507571l-.0263954-.0581919c-2.2171628 1.0429922-5.2965896-1.0238298-5.2560572-3.8442346-.0238122.1789906-.0673974.1342782-.11652473.206748-.11436421-1.45118091.67021653-2.90860842 1.99327203-3.50372505 1.2941238-.64062747 2.8112931-.37770719 3.7384652.48624753-.5091673-.66697587-1.5226644-1.37401443-2.7240288-1.30788514-1.1765659.01855189-2.2773274.76640463-2.6447018 1.57813224-.60291316.37958587-.67284676 1.4631105-.93553221 1.66135746-.35333142 2.59745326.66486231 3.71953766 2.38732361 5.03963416.1371901.0925716.1549906.1453153.1438594.1928927.0005636-.0005636.0008454-.0011742.001409-.0016908 2.0320197.7589839 4.1312488.5750148 5.889264-.8343656.4472651-.3484469.9359549-.9410273 1.0771841-.9492465-.2126658.3195623.0363054.1536755-.1271392.4361339.445903-.7189681-.1935503-.2927442.4607446-1.2414271l.2417852.332807c-.0898476-.5964787.7409955-1.3210829.6566431-2.2646463.1906384-.2886112.2124779.3104507.0103327.9744206.2804859-.7365337.0740197-.8548901.1460669-1.4625938.0779649.2042117.1801177.4212924.2326266.6369171-.1828418-.7117353.1874916-1.19864033.2790769-1.61223018-.0899415-.04010967-.2819418.31463075-.3259028-.52612236z" fill="#a80030" fill-rule="evenodd"/></svg>