<?xml version="1.0" standalone="no"?>
<!DOCTYPE svg PUBLIC "-//W3C//DTD SVG 20010904//EN"
 "http://www.w3.org/TR/2001/REC-SVG-20010904/DTD/svg10.dtd">
<svg version="1.0" xmlns="http://www.w3.org/2000/svg"
 width="225.000000pt" height="225.000000pt" viewBox="0 0 225.000000 225.000000"
 preserveAspectRatio="xMidYMid meet">

<g transform="translate(0.000000,225.000000) scale(0.100000,-0.100000)"
fill="#000000" stroke="none">
<path d="M303 1480 c-45 -27 -50 -60 -48 -315 4 -381 1 -353 34 -386 l29 -29
806 0 806 0 32 29 33 29 3 289 c4 322 0 352 -51 383 -31 19 -57 20 -822 20
-766 0 -791 -1 -822 -20z m335 -292 l-3 -193 -82 -3 c-125 -4 -173 32 -173
130 0 80 59 138 142 138 l33 0 -3 60 -4 60 46 0 46 0 -2 -192z m132 147 l0
-45 -40 0 -40 0 0 45 0 45 40 0 40 0 0 -45z m213 -86 c34 -19 37 -27 37 -145
l0 -112 -62 -4 c-76 -6 -128 5 -145 28 -33 45 1 117 60 129 57 12 67 16 67 31
0 17 -55 19 -94 4 -25 -9 -26 -8 -26 25 0 30 4 36 33 44 46 13 105 13 130 0z
m266 0 c17 -6 36 -19 41 -29 6 -10 10 -66 10 -124 l0 -106 -40 0 -40 0 0 88
c0 48 -4 93 -9 100 -5 8 -21 12 -37 10 l-29 -3 0 -98 0 -97 -43 0 -43 0 3 127
3 128 30 6 c49 11 120 10 154 -2z m340 5 c36 -7 40 -25 11 -54 -18 -18 -20
-33 -20 -130 0 -135 -13 -170 -78 -201 -34 -17 -55 -20 -98 -16 -68 7 -74 11
-74 51 l0 33 69 -5 c63 -4 69 -3 85 19 25 36 20 45 -24 41 -52 -5 -92 12 -113
47 -31 53 -17 144 27 180 41 34 139 50 215 35z m230 -8 c44 -23 64 -62 64
-124 0 -63 -21 -98 -77 -126 -47 -23 -113 -15 -149 18 -66 61 -50 198 26 231
42 19 101 19 136 1z m-1049 -133 c0 -153 -12 -195 -62 -222 -24 -14 -30 -14
-63 2 l-35 17 31 28 c37 33 47 80 48 225 l1 87 40 0 40 0 0 -137z"/>
<path d="M493 1182 c-39 -25 -33 -105 9 -121 40 -15 48 -3 48 65 0 60 -1 64
-22 64 -13 0 -28 -4 -35 -8z"/>
<path d="M898 1089 c-31 -18 -22 -39 17 -39 31 0 35 3 35 25 0 27 -21 33 -52
14z"/>
<path d="M1439 1172 c-25 -21 -30 -71 -9 -96 7 -9 25 -16 41 -16 29 0 29 0 29
65 0 57 -2 65 -19 65 -10 0 -29 -8 -42 -18z"/>
<path d="M1716 1168 c-30 -43 -9 -118 34 -118 24 0 50 37 50 70 0 33 -26 70
-50 70 -10 0 -26 -10 -34 -22z"/>
</g>
</svg>
