<svg fill="none" height="16" width="16" xmlns="http://www.w3.org/2000/svg" xmlns:xlink="http://www.w3.org/1999/xlink"><linearGradient id="a"><stop offset=".18" stop-color="#0052cc"/><stop offset="1" stop-color="#2684ff"/></linearGradient><linearGradient id="b" gradientUnits="userSpaceOnUse" x1="7.563" x2="4.262" xlink:href="#a" y1="3.241" y2="6.654"/><linearGradient id="c" gradientUnits="userSpaceOnUse" x1="216.055" x2="331.647" xlink:href="#a" y1="490.616" y2="413.158"/><path d="m15.808 7.552-7.118-6.885-.69-.667-5.358 5.183-2.45 2.37a.623.623 0 0 0 -.192.447c0 .168.069.329.192.448l4.895 4.735 2.913 2.817 5.358-5.183.083-.08 2.367-2.29a.623.623 0 0 0 .192-.447.623.623 0 0 0 -.192-.448zm-7.808 2.813-2.446-2.365 2.446-2.365 2.446 2.365z" fill="#2684ff"/><path d="m8 5.634a3.918 3.918 0 0 1 -1.206-2.804 3.917 3.917 0 0 1 1.189-2.812l-5.353 5.175 2.913 2.817z" fill="url(#b)"/><path d="m10.452 7.994-2.452 2.371c.383.37.686.81.893 1.293a3.87 3.87 0 0 1 0 3.05c-.207.483-.51.922-.893 1.292l5.365-5.189z" fill="url(#c)"/></svg>