<svg version="1.1" id="Layer_1" xmlns="http://www.w3.org/2000/svg" xmlns:xlink="http://www.w3.org/1999/xlink" x="0px" y="0px"
	 width="100%" viewBox="0 0 204 192" enable-background="new 0 0 204 192" xml:space="preserve">
<path fill="#020202" opacity="1.000000" stroke="none" 
	d="
M121.000000,193.000000 
	C80.691826,193.000000 40.883652,193.000000 1.037740,193.000000 
	C1.037740,129.065598 1.037740,65.131180 1.037740,1.098377 
	C68.891335,1.098377 136.782867,1.098377 204.837189,1.098377 
	C204.837189,64.999664 204.837189,128.999802 204.837189,193.000000 
	C177.131454,193.000000 149.315735,193.000000 121.000000,193.000000 
M95.499863,180.309341 
	C112.657127,180.309235 129.814758,180.379639 146.971558,180.291428 
	C169.171707,180.177277 185.889908,163.598206 185.971130,141.479126 
	C186.080032,111.829140 186.079559,82.178162 185.971298,52.528179 
	C185.890518,30.406046 169.177155,13.785275 146.980270,13.714126 
	C117.663345,13.620154 88.345673,13.620745 59.028736,13.713927 
	C36.828381,13.784489 20.110104,30.401636 20.028862,52.520573 
	C19.919956,82.170555 19.920452,111.821526 20.028675,141.471512 
	C20.109425,163.593765 36.822769,180.154144 59.019421,180.295639 
	C70.845779,180.371033 82.673012,180.309235 95.499863,180.309341 
z"/>
<path fill="#FFFDFD" opacity="1.000000" stroke="none" 
	d="
M94.999855,180.309357 
	C82.673012,180.309235 70.845779,180.371033 59.019421,180.295639 
	C36.822769,180.154144 20.109425,163.593765 20.028675,141.471512 
	C19.920452,111.821526 19.919956,82.170555 20.028862,52.520573 
	C20.110104,30.401636 36.828381,13.784489 59.028736,13.713927 
	C88.345673,13.620745 117.663345,13.620154 146.980270,13.714126 
	C169.177155,13.785275 185.890518,30.406046 185.971298,52.528179 
	C186.079559,82.178162 186.080032,111.829140 185.971130,141.479126 
	C185.889908,163.598206 169.171707,180.177277 146.971558,180.291428 
	C129.814758,180.379639 112.657127,180.309235 94.999855,180.309357 
M64.314018,135.855392 
	C65.109703,136.047699 65.905167,136.406982 66.701103,136.408051 
	C90.700371,136.440247 114.699745,136.455994 138.698792,136.378296 
	C139.783783,136.374786 140.865891,135.476425 142.183609,134.083450 
	C142.198181,129.441177 142.240982,124.798782 142.222458,120.156639 
	C142.141113,99.772743 142.042007,79.388916 141.685913,58.144531 
	C140.890228,57.952251 140.094757,57.593014 139.298813,57.591942 
	C115.299606,57.559738 91.300285,57.544022 67.301300,57.621708 
	C66.216278,57.625225 65.134155,58.523518 63.816395,59.916485 
	C63.801823,64.558754 63.759014,69.201141 63.777546,73.843277 
	C63.858910,94.227165 63.958004,114.610985 64.314018,135.855392 
z"/>
<path fill="#FF391E" opacity="1.000000" stroke="none" 
	d="
M64.050682,59.005051 
	C65.134155,58.523518 66.216278,57.625225 67.301300,57.621708 
	C91.300285,57.544022 115.299606,57.559738 139.298813,57.591942 
	C140.094757,57.593014 140.890228,57.952251 141.586441,58.575062 
	C141.486969,59.005592 141.024658,58.998932 140.553467,58.999504 
	C115.046646,58.999695 90.010994,58.999313 64.744194,59.002270 
	C64.513039,59.005608 64.050682,59.005047 64.050682,59.005051 
z"/>
<path fill="#FF391E" opacity="1.000000" stroke="none" 
	d="
M141.949341,134.994858 
	C140.865891,135.476425 139.783783,136.374786 138.698792,136.378296 
	C114.699745,136.455994 90.700371,136.440247 66.701103,136.408051 
	C65.905167,136.406982 65.109703,136.047699 64.413528,135.424927 
	C64.513031,134.994461 64.975349,135.001221 65.446793,135.000549 
	C90.953705,135.000336 115.989182,135.000778 141.255814,134.997833 
	C141.486969,134.994446 141.949341,134.994858 141.949341,134.994858 
z"/>
<path fill="#FF300F" opacity="1.000000" stroke="none" 
	d="
M64.975349,135.001221 
	C64.975349,135.001221 64.513031,134.994461 64.281845,134.994644 
	C63.958004,114.610985 63.858910,94.227165 63.777546,73.843277 
	C63.759014,69.201141 63.801823,64.558754 63.933540,59.460766 
	C64.050682,59.005047 64.513039,59.005608 64.753471,59.470985 
	C64.987717,84.957985 64.981537,109.979599 64.975349,135.001221 
z"/>
<path fill="#FF300F" opacity="1.000000" stroke="none" 
	d="
M142.066467,134.539154 
	C141.949341,134.994858 141.486969,134.994446 141.246552,134.529099 
	C141.012299,109.042145 141.018478,84.020538 141.024658,58.998932 
	C141.024658,58.998932 141.486969,59.005592 141.718170,59.005325 
	C142.042007,79.388916 142.141113,99.772743 142.222458,120.156639 
	C142.240982,124.798782 142.198181,129.441177 142.066467,134.539154 
z"/>
<path fill="#FF4A36" opacity="1.000000" stroke="none" 
	d="
M140.553467,58.999504 
	C141.018478,84.020538 141.012299,109.042145 141.015381,134.532486 
	C115.989182,135.000778 90.953705,135.000336 65.446793,135.000549 
	C64.981537,109.979599 64.987717,84.957985 64.984627,59.467648 
	C90.010994,58.999313 115.046646,58.999695 140.553467,58.999504 
M128.054077,120.392021 
	C128.054077,118.143898 128.054077,115.895782 128.054077,113.595657 
	C119.213478,113.595657 111.029594,113.595657 102.667053,113.595657 
	C102.667053,116.501038 102.667053,119.069733 102.667053,122.456306 
	C111.289680,122.070122 119.603912,121.697754 128.054077,120.392021 
z"/>
<path fill="#FFF4F4" opacity="1.000000" stroke="none" 
	d="
M127.986115,120.858704 
	C119.603912,121.697754 111.289680,122.070122 102.667053,122.456306 
	C102.667053,119.069733 102.667053,116.501038 102.667053,113.595657 
	C111.029594,113.595657 119.213478,113.595657 128.054077,113.595657 
	C128.054077,115.895782 128.054077,118.143898 127.986115,120.858704 
z"/>
</svg>