<svg viewBox="0 0 128 128" xmlns="http://www.w3.org/2000/svg"><path d="m122.5 23.9v-11.08l-26.59 15.48v9.34l-21.28 45.9-10.64 7.33v33.61l22.81-13.15z" fill="#1159cc"/><path d="m63.99 66.94-15.95-37.23v-10.52l-.11-.06-15.84 9.17v9.34l21.27 47.91 10.63-5.25z" fill="#1159cc"/><path d="m106.55 3.52-26.58 15.57-.02-.01v.01 10.62l-15.96 37.23v12.45l-10.63 6.16-21.27-47.91v-9.36l15.96-9.19-26.6-15.57-15.95 9.3v11.42l35.9 87.2 22.59 13.04v-32.76l10.64-6.17-.13-.08 21.41-47.83v-9.34-.02l26.59-15.46z" fill="#127eff"/></svg>