<svg height="48" width="48" xmlns="http://www.w3.org/2000/svg" xmlns:xlink="http://www.w3.org/1999/xlink"><linearGradient id="a" gradientTransform="translate(-384.57 -499.8)" gradientUnits="userSpaceOnUse" x1="392.57" x2="411.57" y1="518.8" y2="537.8"><stop offset="0" stop-color="#00267a"/><stop offset="1" stop-opacity="0"/></linearGradient><linearGradient id="b" gradientTransform="translate(-384.57 -499.8)" gradientUnits="userSpaceOnUse" x1="392.57" x2="411.57" y1="518.8" y2="537.8"><stop offset="0" stop-color="#292c2f"/><stop offset="1" stop-opacity="0"/></linearGradient><linearGradient id="c" gradientTransform="matrix(1.1428571 0 0 1.1428565 -3.428571 -3.428547)" gradientUnits="userSpaceOnUse" x1="10" x2="38" y1="24" y2="24"><stop offset="0" stop-color="#eff0f1"/><stop offset="1" stop-color="#fcfcfc"/></linearGradient><linearGradient id="d" gradientTransform="matrix(1.1764708 0 0 1.1764702 -4.2353 -4.235291)" gradientUnits="userSpaceOnUse" x1="15.866084" x2="23.068089" xlink:href="#b" y1="23.893206" y2="23.893206"/><linearGradient id="e" gradientTransform="matrix(1.1764708 0 0 1.1764702 -4.2353 -4.235291)" gradientUnits="userSpaceOnUse" x1="10" x2="41.703552" xlink:href="#a" y1="10" y2="41.703552"/><linearGradient id="f" gradientTransform="matrix(1.1764708 0 0 1.1764702 -4.2353 -4.235291)" gradientUnits="userSpaceOnUse" x1="10" x2="44" xlink:href="#a" y1="10" y2="44"/><linearGradient id="g" gradientTransform="matrix(1.1764708 0 0 1.1764702 -4.2353 -4.235291)" gradientUnits="userSpaceOnUse" x1="23.906326" x2="42" xlink:href="#b" y1="22.994661" y2="42"/><linearGradient id="h" gradientTransform="matrix(1.1764708 0 0 1.1764702 -456.67066 -592.23508)" gradientUnits="userSpaceOnUse" x1="408.57001" x2="408.57001" y1="540.79999" y2="506.79999"><stop offset="0" stop-color="#2980b9"/><stop offset="1" stop-color="#3498db"/></linearGradient><path d="m4 4h40v40h-40z" fill="url(#h)"/><g fill-rule="evenodd"><path d="m40 8-2 2 1.293236 29.293221-29.293236-1.293221-2 2 2.002837 2.943178h33.996165l.000998-30.943178z" fill="url(#g)" opacity=".2"/><path d="m8.8345552 15.773892 1.1654448 1.226108 5.472885 5.591445 3.414522 7.681523h.445772l.11325 6.271676 1.553571 1.455356.693017 1.294104h17.601106v-9.372699h-7.068016l-3.529412-13.039977-2.693015 9.420953-2.571233-9.36121-3.619027 12.621779-1.645219-.955881-3.141086-12.833177z" fill="url(#f)" opacity=".2"/><path d="m23.508961 12.58487 5.214877 4.893559-.152409-4.906985 10.722691 10.301133v7.049646h-7.068796l-3.14806-11.748715-2.885453 4.997749-2.708651-4.69152z" fill="url(#e)" opacity=".2"/><path d="m16 15 6.247541 6.071064-2.88692 10.774122-4.298595-16.042572z" fill="url(#d)" opacity=".2"/></g><path d="m4 42.944195h40v1.055807h-40z" fill="#1f3c64" opacity=".504"/><path d="m8 8.0000185v31.9999815h32v-31.9999815zm2 1.9999815h28v19h-5l-3.245537-12.013381-1.183034-4.415175h-.0022l-1.183034 4.417407-1.348216 5.035711-1.149552-4.290174-.200894-.745537v-.0022l-1.178572-4.401781-4.057981 15.145133-3.45098-12.730003h-6zm0 7h4l4.263393 15.1317 1.183036 4.412944 1.183035-4.41071v-.0022l2.875-10.729905 1.350447 5.037945 1.183035 4.417461 1.183036-4.417408 1.348215-5.035711 2.430803 9.595884h3 3 1v7h-28z" fill="url(#c)"/></svg>