<?xml version="1.0" standalone="no"?>
<!DOCTYPE svg PUBLIC "-//W3C//DTD SVG 20010904//EN"
 "http://www.w3.org/TR/2001/REC-SVG-20010904/DTD/svg10.dtd">
<svg version="1.0" xmlns="http://www.w3.org/2000/svg"
 width="204.000000pt" height="192.000000pt" viewBox="0 0 204.000000 192.000000"
 preserveAspectRatio="xMidYMid meet">

<g transform="translate(0.000000,192.000000) scale(0.100000,-0.100000)"
fill="#000000" stroke="none">
<path d="M250 1256 l0 -154 37 -53 c242 -355 355 -508 387 -523 63 -30 120
-15 170 44 l26 32 0 190 c0 155 3 196 16 224 32 67 120 85 174 37 17 -16 104
-134 194 -263 90 -129 174 -243 188 -253 60 -45 150 -25 195 42 22 32 23 43
23 223 0 232 11 263 98 277 l37 6 3 164 3 164 -40 -6 c-22 -3 -54 -15 -72 -27
-53 -38 -59 -68 -59 -281 l0 -191 -34 -34 c-38 -38 -86 -45 -135 -20 -18 10
-87 100 -190 248 -199 287 -180 261 -221 287 -44 26 -82 27 -129 0 -64 -35
-65 -43 -71 -269 -4 -174 -8 -209 -23 -231 -31 -46 -97 -62 -151 -38 -14 7
-76 86 -147 188 -226 325 -260 371 -269 371 -6 0 -10 -63 -10 -154z"/>
</g>
</svg>
